<svg width="28" height="32" viewBox="0 0 28 32" fill="none" xmlns="http://www.w3.org/2000/svg">
<g clip-path="url(#clip0_74_390)">
<path d="M3.91433 19.839C3.91433 20.9199 3.03804 21.7962 1.95707 21.7962C0.876102 21.7962 0 20.9199 0 19.839V12.0101C0.0131688 10.9291 0.899994 10.0636 1.98096 10.0766C3.0435 10.0894 3.90173 10.9476 3.91452 12.0101V19.839H3.91433ZM12.2205 30.0427C12.2205 31.1237 11.3442 32 10.2632 32C9.18223 32 8.30594 31.1237 8.30594 30.0427V22.2139C8.31911 21.1329 9.20593 20.2673 10.2869 20.2803C11.3494 20.2931 12.2077 21.1513 12.2205 22.2139V30.0427ZM19.1301 30.0427C19.1301 31.1237 18.2538 32 17.1729 32C16.0919 32 15.2156 31.1237 15.2156 30.0427V22.2139C15.2288 21.1329 16.1156 20.2673 17.1966 20.2803C18.2591 20.2931 19.1173 21.1513 19.1301 22.2139V30.0427ZM27.472 19.839C27.472 20.9199 26.5957 21.7962 25.5147 21.7962C24.4338 21.7962 23.5575 20.9199 23.5575 19.839V12.0101C23.5707 10.9291 24.4575 10.0636 25.5384 10.0766C26.601 10.0894 27.4592 10.9476 27.472 12.0101V19.839Z" fill="#1E1E1E"/>
<path d="M22.3882 10.0296V24.1018C22.3882 25.0035 21.6573 25.7344 20.7556 25.7344H6.74084C5.83915 25.7344 5.1081 25.0037 5.10791 24.102V10.0296H22.3882ZM13.7485 1.91406C9.05535 1.91406 5.23997 5.04034 5.12597 8.93153H22.3709C22.2563 5.03996 18.4409 1.91406 13.7483 1.91406H13.7485ZM10.0364 6.44545C9.50234 6.44545 9.06871 6.01219 9.06871 5.47792C9.08169 4.94345 9.52548 4.52073 10.0599 4.53371C10.5762 4.54632 10.9917 4.9617 11.0041 5.47792C11.0038 6.01219 10.5707 6.44526 10.0364 6.44545ZM17.4651 6.44545C16.9307 6.44545 16.4974 6.01182 16.4976 5.47735C16.4976 4.94289 16.9312 4.50963 17.4657 4.50982C18.0002 4.51001 18.4334 4.94345 18.4332 5.47792C18.4332 6.01238 17.9996 6.44564 17.4651 6.44545Z" fill="#1E1E1E"/>
<path d="M10.5341 3.20842C10.6084 3.33126 10.5691 3.49117 10.4463 3.56548C10.3306 3.63546 10.1804 3.60517 10.1011 3.49568L8.05199 0.403649C7.97279 0.283812 8.00552 0.122589 8.12536 0.0433878C8.24519 -0.0358132 8.40642 -0.00307929 8.48562 0.116757L10.5341 3.2086V3.20842ZM16.959 3.20842C16.8796 3.32806 16.9123 3.48948 17.032 3.56868C17.1516 3.64807 17.313 3.61533 17.3922 3.49568L19.4413 0.40346C19.5205 0.283624 19.4878 0.122401 19.3679 0.0431996C19.2481 -0.0360013 19.0869 -0.00326741 19.0077 0.116569L16.959 3.20842Z" fill="#1E1E1E"/>
</g>
<defs>
<clipPath id="clip0_74_390">
<rect width="27.472" height="32" fill="white"/>
</clipPath>
</defs>
</svg>
