<svg width="35" height="35" viewBox="0 0 35 35" fill="none" xmlns="http://www.w3.org/2000/svg">
<rect width="34.1197" height="34.1197" rx="5.68662" fill="#1E1E1E"/>
<path d="M8.88024 14.6807V13.4231H11.2296V20.5298H9.82585V14.6807H8.88024ZM13.7672 16.7669C13.1173 16.4289 12.7924 15.9057 12.7924 15.1974C12.7924 14.8464 12.8801 14.528 13.0556 14.242C13.2375 13.9496 13.5072 13.7188 13.8647 13.5499C14.2286 13.3744 14.6706 13.2867 15.1905 13.2867C15.7104 13.2867 16.1491 13.3744 16.5065 13.5499C16.8705 13.7188 17.1402 13.9496 17.3157 14.242C17.4976 14.528 17.5886 14.8464 17.5886 15.1974C17.5886 15.5548 17.5009 15.87 17.3254 16.143C17.1499 16.4094 16.916 16.6174 16.6235 16.7669C16.981 16.9228 17.2604 17.1503 17.4619 17.4493C17.6634 17.7482 17.7641 18.1024 17.7641 18.5118C17.7641 18.9538 17.6504 19.3405 17.4229 19.6719C17.2019 19.9969 16.8965 20.2471 16.5065 20.4226C16.1166 20.598 15.6779 20.6858 15.1905 20.6858C14.7031 20.6858 14.2644 20.598 13.8744 20.4226C13.491 20.2471 13.1855 19.9969 12.9581 19.6719C12.7371 19.3405 12.6266 18.9538 12.6266 18.5118C12.6266 18.1024 12.7274 17.7482 12.9288 17.4493C13.1303 17.1438 13.4098 16.9163 13.7672 16.7669ZM16.2628 15.3923C16.2628 15.0739 16.1653 14.8269 15.9704 14.6514C15.7819 14.476 15.5219 14.3882 15.1905 14.3882C14.8655 14.3882 14.6056 14.476 14.4106 14.6514C14.2221 14.8269 14.1279 15.0771 14.1279 15.4021C14.1279 15.6945 14.2254 15.9285 14.4204 16.104C14.6218 16.2794 14.8785 16.3672 15.1905 16.3672C15.5024 16.3672 15.7592 16.2794 15.9606 16.104C16.1621 15.922 16.2628 15.6848 16.2628 15.3923ZM15.1905 17.3615C14.82 17.3615 14.5178 17.4558 14.2839 17.6442C14.0564 17.8327 13.9427 18.1024 13.9427 18.4534C13.9427 18.7783 14.0532 19.0448 14.2741 19.2527C14.5016 19.4542 14.807 19.5549 15.1905 19.5549C15.5739 19.5549 15.8761 19.451 16.0971 19.243C16.3181 19.035 16.4285 18.7718 16.4285 18.4534C16.4285 18.1089 16.3148 17.8425 16.0874 17.654C15.8599 17.459 15.5609 17.3615 15.1905 17.3615ZM24.0965 17.654H22.254V19.5452H20.9672V17.654H19.1248V16.4647H20.9672V14.5735H22.254V16.4647H24.0965V17.654Z" fill="white"/>
</svg>
