<svg width="48" height="48" viewBox="0 0 48 48" fill="none" xmlns="http://www.w3.org/2000/svg">
<rect width="48" height="48" rx="8" fill="#2196F3"/>
<path fill-rule="evenodd" clip-rule="evenodd" d="M33.6962 21.52C34.13 24.2379 34.0989 27.0097 33.6042 29.7172C33.4238 30.705 32.5976 31.4454 31.5961 31.517L29.7644 31.6481C25.9284 31.9225 22.0778 31.9225 18.2418 31.6481L16.5487 31.527C15.4655 31.4495 14.5722 30.6488 14.377 29.5806C13.8988 26.963 13.8169 24.2885 14.1341 21.6466L14.4389 19.109C14.5859 17.884 15.6251 16.9622 16.8589 16.9622H19.4216C20.5313 16.9622 21.431 17.8618 21.431 18.9715C21.431 19.0082 21.4607 19.0379 21.4973 19.0379L31.2411 19.0379C32.4273 19.0379 33.4376 19.8998 33.6246 21.0711L33.6962 21.52ZM24.8419 22.8334C24.8419 22.3701 24.4664 21.9946 24.0031 21.9946C23.5399 21.9946 23.1644 22.3701 23.1644 22.8334V24.7904H21.2073C20.7441 24.7904 20.3686 25.166 20.3686 25.6292C20.3686 26.0924 20.7441 26.4679 21.2073 26.4679H23.1644V28.425C23.1644 28.8882 23.5399 29.2637 24.0031 29.2637C24.4664 29.2637 24.8419 28.8882 24.8419 28.425V26.4679H26.799C27.2622 26.4679 27.6377 26.0924 27.6377 25.6292C27.6377 25.166 27.2622 24.7904 26.799 24.7904H24.8419V22.8334Z" fill="white"/>
</svg>
