<svg width="48" height="48" viewBox="0 0 48 48" fill="none" xmlns="http://www.w3.org/2000/svg">
<rect width="48" height="48" rx="8" fill="#2196F3"/>
<path fill-rule="evenodd" clip-rule="evenodd" d="M17 28.25C17.4142 28.25 17.75 28.5858 17.75 29V31C17.75 31.1381 17.8619 31.25 18 31.25H30C30.1381 31.25 30.25 31.1381 30.25 31V29C30.25 28.5858 30.5858 28.25 31 28.25C31.4142 28.25 31.75 28.5858 31.75 29V31C31.75 31.9665 30.9665 32.75 30 32.75H18C17.0335 32.75 16.25 31.9665 16.25 31V29C16.25 28.5858 16.5858 28.25 17 28.25Z" fill="white"/>
<path d="M22.7379 15.75C22.2236 15.75 21.7945 16.1431 21.7495 16.6555C21.5959 18.4083 21.5688 20.1696 21.6684 21.9258C21.4214 21.9395 21.1745 21.9553 20.9277 21.9733L19.4382 22.0819C18.8639 22.1237 18.5429 22.7641 18.8529 23.2493C19.915 24.9114 21.2834 26.3563 22.8854 27.5071L23.4821 27.9358C23.7916 28.1581 24.2085 28.1581 24.518 27.9358L25.1147 27.5071C26.7167 26.3563 28.0851 24.9114 29.1472 23.2493C29.4572 22.7641 29.1362 22.1237 28.5619 22.0819L27.0724 21.9733C26.8256 21.9553 26.5787 21.9395 26.3317 21.9258C26.4313 20.1696 26.4042 18.4083 26.2506 16.6555C26.2056 16.1431 25.7765 15.75 25.2622 15.75H22.7379Z" fill="white"/>
</svg>
