<svg width="48" height="48" viewBox="0 0 48 48" fill="none" xmlns="http://www.w3.org/2000/svg">
<rect width="48" height="48" rx="8" fill="#2196F3"/>
<path fill-rule="evenodd" clip-rule="evenodd" d="M24.0001 14.25C24.4144 14.25 24.7501 14.5858 24.7501 15V16.7369C26.1815 16.7566 27.6124 16.8325 29.0393 16.9646L29.3709 16.9954C31.6356 17.2051 33.3795 19.0858 33.4181 21.3599L33.4302 22.0734C33.4772 24.8482 33.2535 27.621 32.7623 30.3524C32.5388 31.5955 31.4571 32.5 30.1941 32.5H29.973C28.8366 32.5 27.8068 31.8302 27.346 30.7914L26.2854 28.4001C25.4064 26.4182 22.5938 26.4182 21.7148 28.4001L20.6542 30.7914C20.1935 31.8302 19.1637 32.5 18.0272 32.5H17.8062C16.5432 32.5 15.4615 31.5955 15.2379 30.3524C14.7467 27.621 14.5231 24.8482 14.5701 22.0734L14.5822 21.3599C14.6207 19.0858 16.3646 17.2051 18.6294 16.9954L18.961 16.9646C20.3879 16.8325 21.8187 16.7566 23.2501 16.7369V15C23.2501 14.5858 23.5859 14.25 24.0001 14.25ZM29.0001 20C29.0001 19.4477 28.5524 19 28.0001 19C27.4479 19 27.0001 19.4477 27.0001 20V20.25C27.0001 20.8023 27.4479 21.25 28.0001 21.25C28.5524 21.25 29.0001 20.8023 29.0001 20.25V20ZM20.0001 19.25C20.4144 19.25 20.7501 19.5858 20.7501 20V21.25H22.0001C22.4144 21.25 22.7501 21.5858 22.7501 22C22.7501 22.4142 22.4144 22.75 22.0001 22.75H20.7501V24C20.7501 24.4142 20.4144 24.75 20.0001 24.75C19.5859 24.75 19.2501 24.4142 19.2501 24V22.75H18.0001C17.5859 22.75 17.2501 22.4142 17.2501 22C17.2501 21.5858 17.5859 21.25 18.0001 21.25L19.2501 21.25V20C19.2501 19.5858 19.5859 19.25 20.0001 19.25ZM28.0001 22.75C28.5524 22.75 29.0001 23.1977 29.0001 23.75V24C29.0001 24.5523 28.5524 25 28.0001 25C27.4479 25 27.0001 24.5523 27.0001 24V23.75C27.0001 23.1977 27.4479 22.75 28.0001 22.75ZM30.0001 23C30.5524 23 31.0001 22.5523 31.0001 22C31.0001 21.4477 30.5524 21 30.0001 21H29.7501C29.1979 21 28.7501 21.4477 28.7501 22C28.7501 22.5523 29.1979 23 29.7501 23H30.0001ZM27.2501 22C27.2501 22.5523 26.8024 23 26.2501 23H26.0001C25.4479 23 25.0001 22.5523 25.0001 22C25.0001 21.4477 25.4479 21 26.0001 21H26.2501C26.8024 21 27.2501 21.4477 27.2501 22Z" fill="white"/>
</svg>
