<svg width="64" height="64" viewBox="0 0 64 64" fill="none" xmlns="http://www.w3.org/2000/svg">
<rect width="64" height="64" rx="10.6667" fill="#2196F3"/>
<path fill-rule="evenodd" clip-rule="evenodd" d="M24.3337 23.3333C24.3337 20.9401 26.2738 19 28.667 19C30.0073 19 31.2055 19.6085 32.0003 20.5643C32.7952 19.6085 33.9934 19 35.3337 19C37.7269 19 39.667 20.9401 39.667 23.3333C39.667 24.339 39.3244 25.2647 38.7496 26H40.0003C41.8413 26 43.3337 27.4924 43.3337 29.3333V31C43.3337 31.5523 42.8859 32 42.3337 32H33.4003C33.1794 32 33.0003 31.8209 33.0003 31.6V26.9855C32.6231 26.7439 32.2857 26.4455 32.0003 26.1024C31.715 26.4455 31.3776 26.7439 31.0003 26.9855V31.6C31.0003 31.8209 30.8212 32 30.6003 32H21.667C21.1147 32 20.667 31.5523 20.667 31V29.3333C20.667 27.4924 22.1594 26 24.0003 26H25.2511C24.6763 25.2647 24.3337 24.339 24.3337 23.3333ZM31.0003 23.3333C31.0003 22.0447 29.9557 21 28.667 21C27.3783 21 26.3337 22.0447 26.3337 23.3333C26.3337 24.622 27.3783 25.6667 28.667 25.6667C29.9557 25.6667 31.0003 24.622 31.0003 23.3333ZM33.0003 23.3333C33.0003 24.622 34.045 25.6667 35.3337 25.6667C36.6223 25.6667 37.667 24.622 37.667 23.3333C37.667 22.0447 36.6223 21 35.3337 21C34.045 21 33.0003 22.0447 33.0003 23.3333Z" fill="white"/>
<path d="M31.0003 34.2C31.0003 33.9791 30.8212 33.8 30.6003 33.8H23.5323C22.9915 33.8 22.5293 34.1897 22.4379 34.7228C22.1419 36.4506 22.1419 38.2161 22.4379 39.9439L22.737 41.6892C22.9384 42.8644 23.8929 43.7647 25.0778 43.8971L26.498 44.0559C27.8592 44.208 29.2251 44.3035 30.5923 44.3424C30.8163 44.3487 31.0003 44.1682 31.0003 43.9441V34.2Z" fill="white"/>
<path d="M33.4084 44.3424C33.1844 44.3487 33.0003 44.1682 33.0003 43.9441L33.0003 34.2C33.0003 33.9791 33.1794 33.8 33.4003 33.8H40.4683C41.0092 33.8 41.4714 34.1897 41.5627 34.7228C41.8588 36.4506 41.8588 38.2161 41.5627 39.9439L41.2636 41.6892C41.0622 42.8644 40.1078 43.7647 38.9228 43.8971L37.5027 44.0559C36.1415 44.208 34.7755 44.3035 33.4084 44.3424Z" fill="white"/>
</svg>
