<svg width="64" height="64" viewBox="0 0 64 64" fill="none" xmlns="http://www.w3.org/2000/svg">
<rect width="64" height="64" rx="10.6667" fill="#2196F3"/>
<path fill-rule="evenodd" clip-rule="evenodd" d="M32.3067 19.3373C25.3132 19.1678 19.5063 24.6997 19.3368 31.6933C19.1673 38.6868 24.6992 44.4937 31.6928 44.6632C32.143 44.6741 32.5502 44.5478 32.8904 44.2905C33.2205 44.0408 33.4492 43.6974 33.6091 43.3299C33.9226 42.6095 34.0283 41.6647 34.0336 40.6904C34.0528 37.1681 37.1427 34.1091 40.6299 34.2412C41.5892 34.2776 42.5146 34.2262 43.2278 33.991C43.5887 33.872 43.9398 33.6916 44.2088 33.4103C44.4913 33.1149 44.6522 32.739 44.6627 32.3072C44.8322 25.3137 39.3003 19.5068 32.3067 19.3373ZM27.8531 36.5372C27.1222 36.6266 26.6021 37.2916 26.6915 38.0225C26.7809 38.7534 27.4459 39.2735 28.1768 39.1841C28.9078 39.0947 29.4279 38.4297 29.3385 37.6988C29.2491 36.9679 28.5841 36.4478 27.8531 36.5372ZM23.3972 33.0523C23.3078 32.3214 23.8278 31.6564 24.5588 31.567C25.2897 31.4776 25.9547 31.9977 26.0441 32.7286C26.1335 33.4596 25.6134 34.1246 24.8825 34.214C24.1516 34.3033 23.4866 33.7833 23.3972 33.0523ZM26.5583 25.9494C25.8274 26.0388 25.3073 26.7038 25.3967 27.4347C25.4861 28.1657 26.1511 28.6857 26.882 28.5964C27.6129 28.507 28.133 27.842 28.0436 27.111C27.9542 26.3801 27.2892 25.86 26.5583 25.9494ZM36.9294 28.375C36.84 27.6441 37.3601 26.9791 38.0911 26.8897C38.822 26.8003 39.487 27.3204 39.5764 28.0513C39.6658 28.7823 39.1457 29.4473 38.4148 29.5367C37.6838 29.6261 37.0188 29.106 36.9294 28.375ZM31.9899 30.5051C31.2589 30.5945 30.7388 31.2595 30.8282 31.9904C30.9176 32.7213 31.5826 33.2414 32.3136 33.152C33.0445 33.0626 33.5646 32.3976 33.4752 31.6667C33.3858 30.9358 32.7208 30.4157 31.9899 30.5051ZM31.1905 25.3829C31.1011 24.652 31.6211 23.987 32.3521 23.8976C33.083 23.8082 33.748 24.3283 33.8374 25.0592C33.9268 25.7901 33.4067 26.4551 32.6758 26.5445C31.9449 26.6339 31.2799 26.1138 31.1905 25.3829Z" fill="white"/>
</svg>
