<svg width="64" height="64" viewBox="0 0 64 64" fill="none" xmlns="http://www.w3.org/2000/svg">
<rect width="64" height="64" rx="10.6667" fill="#2196F3"/>
<path d="M29.6663 28.6668C29.6663 27.3782 30.711 26.3335 31.9997 26.3335C33.2883 26.3335 34.333 27.3782 34.333 28.6668C34.333 29.9555 33.2883 31.0002 31.9997 31.0002C30.711 31.0002 29.6663 29.9555 29.6663 28.6668Z" fill="white"/>
<path fill-rule="evenodd" clip-rule="evenodd" d="M22.6663 28.6668C22.6663 23.5122 26.845 19.3335 31.9997 19.3335C37.1543 19.3335 41.333 23.5122 41.333 28.6668C41.333 30.4964 40.8066 32.2031 39.8969 33.6435L43.5324 39.9403C43.7287 40.2803 43.7079 40.7037 43.4792 41.0228C43.2506 41.3419 42.8564 41.4977 42.4713 41.4211L38.9832 40.7275L37.8398 44.0952C37.7136 44.4669 37.3815 44.7304 36.9908 44.7689C36.6002 44.8073 36.2231 44.6136 36.0268 44.2737L32.4 37.9917C32.2672 37.9973 32.1338 38.0002 31.9997 38.0002C31.8656 38.0002 31.7321 37.9973 31.5994 37.9917L27.9725 44.2737C27.7765 44.6133 27.3999 44.807 27.0096 44.769C26.6193 44.731 26.2872 44.4683 26.1603 44.0972L25.0111 40.7364L21.5259 41.4216C21.1411 41.4972 20.7476 41.3409 20.5195 41.0219C20.2914 40.7029 20.2709 40.28 20.467 39.9403L24.1024 33.6435C23.1928 32.2031 22.6663 30.4964 22.6663 28.6668ZM25.4476 35.3137C26.5572 36.4077 27.9395 37.2258 29.4833 37.657L27.3407 41.368L26.621 39.2633C26.4592 38.79 25.9726 38.5091 25.4819 38.6056L23.2993 39.0347L25.4476 35.3137ZM34.5161 37.657L36.6555 41.3625L37.3713 39.2542C37.5326 38.7791 38.0211 38.4971 38.5132 38.5949L40.6969 39.0291L38.5518 35.3137C37.4421 36.4076 36.0599 37.2258 34.5161 37.657ZM31.9997 24.3335C29.6064 24.3335 27.6663 26.2736 27.6663 28.6668C27.6663 31.0601 29.6064 33.0002 31.9997 33.0002C34.3929 33.0002 36.333 31.0601 36.333 28.6668C36.333 26.2736 34.3929 24.3335 31.9997 24.3335Z" fill="white"/>
</svg>
