<svg width="64" height="64" viewBox="0 0 64 64" fill="none" xmlns="http://www.w3.org/2000/svg">
<rect width="64" height="64" rx="10.6667" fill="#2196F3"/>
<path fill-rule="evenodd" clip-rule="evenodd" d="M37.9419 19.8432C34.0008 19.2769 29.999 19.2769 26.058 19.8432C24.104 20.124 22.5985 21.7098 22.4197 23.6758L22.2504 25.5368C21.8592 29.8365 21.8592 34.1628 22.2504 38.4625L22.4197 40.3235C22.5985 42.2894 24.104 43.8753 26.058 44.156C29.999 44.7224 34.0008 44.7224 37.9419 44.156C39.8959 43.8753 41.4014 42.2894 41.5802 40.3235L41.7495 38.4625C42.1406 34.1628 42.1406 29.8365 41.7495 25.5368L41.5802 23.6758C41.4014 21.7098 39.8959 20.124 37.9419 19.8432ZM29.3333 27.9996C29.3333 26.5269 30.5272 25.333 31.9999 25.333C33.4727 25.333 34.6666 26.5269 34.6666 27.9996C34.6666 29.4724 33.4727 30.6663 31.9999 30.6663C30.5272 30.6663 29.3333 29.4724 29.3333 27.9996ZM26.6666 36.6663C26.6666 34.4572 28.4574 32.6663 30.6666 32.6663H33.3333C35.5424 32.6663 37.3333 34.4572 37.3333 36.6663C37.3333 37.4027 36.7363 37.9996 35.9999 37.9996H27.9999C27.2635 37.9996 26.6666 37.4027 26.6666 36.6663Z" fill="white"/>
</svg>
