<svg width="64" height="64" viewBox="0 0 64 64" fill="none" xmlns="http://www.w3.org/2000/svg">
<rect width="64" height="64" rx="10.6667" fill="#2196F3"/>
<path fill-rule="evenodd" clip-rule="evenodd" d="M32.0261 20.6665C32.1886 20.6665 32.3132 20.8106 32.2917 20.9716C31.9237 23.728 31.9693 26.5256 32.4284 29.2716L32.4479 29.3881C32.4705 29.5237 32.5741 29.6315 32.7087 29.6595C32.8434 29.6875 32.9813 29.63 33.0562 29.5147L35.2212 26.1797C35.2737 26.0987 35.3923 26.0987 35.4449 26.1797L37.6098 29.5147C37.6847 29.63 37.8227 29.6875 37.9573 29.6595C38.0919 29.6315 38.1955 29.5237 38.2182 29.3881L38.2377 29.2716C38.6967 26.5256 38.7423 23.728 38.3743 20.9716C38.3528 20.8106 38.4774 20.6665 38.6399 20.6665L40.6663 20.6665C41.7709 20.6665 42.6663 21.5619 42.6663 22.6665V42.6665C42.6663 43.4029 42.0694 43.9998 41.333 43.9998H25.9997C23.6487 43.9998 21.7038 42.2614 21.3803 39.9998H21.333V26.6665C21.333 23.3528 24.0193 20.6665 27.333 20.6665L32.0261 20.6665ZM25.9997 36.6665H40.6663V41.9998H25.9997C24.5269 41.9998 23.333 40.8059 23.333 39.3332C23.333 37.8604 24.5269 36.6665 25.9997 36.6665Z" fill="white"/>
</svg>
